:version 1.10
:name ASF
:units
  mass 1
  length 1
  angle deg
:documentation
  ASF file generated by Kaydara
:root
  axis xyz
  order  tx ty tz rx ry rz
  position 0 0 0
  orientation 0 0 0
:bonedata
  begin
    id 1
    name RightUpLegDummy
    direction -0.718183 -0.695806 0.00816078
    length 4.904
    axis 0 0 0 xyz
  end
  begin
    id 2
    name RightUpLeg
    direction -0.0736652 -0.994202 0.0783343
    length 17.4976
    axis -2.72909 -3.00389 -4.00133 xyz
    dof rx ry rz
  end
  begin
    id 3
    name RightLeg
    direction -0.0389037 -0.994596 -0.0962598
    length 16.5821
    axis 3.95836 -18.5909 -4.46993 xyz
    dof rx ry rz
  end
  begin
    id 4
    name RightFoot
    direction -0.311643 -0.412678 0.855906
    length 3.77069
    axis -1.99483 -18.8351 -3.27644 xyz
    dof rx ry rz
  end
  begin
    id 5
    name RightToes
    direction -0.317852 0.0389852 0.947339
    length 3.85082
    axis -2.00228 -18.1713 -3.25211 xyz
    dof rx ry rz
  end
  begin
    id 6
    name SpineDummy
    direction 8.3039e-015 1 4.44677e-016
    length 4.6813
    axis 0 0 0 xyz
  end
  begin
    id 7
    name Spine
    direction -0.000262373 0.999988 0.00493267
    length 10.1015
    axis -0.00246081 0.00062579 0.0150362 xyz
    dof rx ry rz
  end
  begin
    id 8
    name Spine1
    direction 0 0 0
    length 0
    axis -0.00349562 0.000650293 0.0196666 xyz
    dof rx ry rz
  end
  begin
    id 9
    name HEadDummy
    direction -0.000343232 0.999999 0.00123745
    length 3.43865
    axis -0.00349562 0.000650293 0.0196666 xyz
  end
  begin
    id 10
    name HEad
    direction -0.0461221 0.980933 0.188796
    length 5.12695
    axis -0.00351404 -7.04812 0.0199272 xyz
    dof rx ry rz
  end
  begin
    id 11
    name LeftShoulder1Dummy
    direction 0.998904 -0.0399089 -0.0244534
    length 3.5433
    axis -0.00349562 0.000650293 0.0196666 xyz
  end
  begin
    id 12
    name LeftShoulder1
    direction 0.99951 1.64443e-005 0.0312999
    length 4.05031
    axis -0.00349562 0.000650293 0.0196666 xyz
    dof rx ry rz
  end
  begin
    id 13
    name LeftArm
    direction 0.984791 0.0515299 0.165927
    length 12.9126
    axis -64.823 -10.7743 5.20463 xyz
    dof rx ry rz
  end
  begin
    id 14
    name LeftForeArm
    direction 0.984968 0.0534808 0.16425
    length 10.8596
    axis -30.0462 -7.70601 1.87451 xyz
    dof rx ry rz
  end
  begin
    id 15
    name LeftHand
    direction 0.975871 0.0289682 0.216418
    length 6.62295
    axis -20.1348 -6.98077 1.86072 xyz
    dof rx ry rz
  end
  begin
    id 16
    name RightShoulderDummy
    direction -0.998877 -0.0405946 -0.0244307
    length 3.5433
    axis -0.00349562 0.000650293 0.0196666 xyz
  end
  begin
    id 17
    name RightShoulder
    direction -0.998933 -0.0249743 -0.0388558
    length 4.05031
    axis -0.0205316 -4.02113 1.41395 xyz
    dof rx ry rz
  end
  begin
    id 18
    name RightArm
    direction -0.997559 0.068664 0.0127103
    length 12.9638
    axis -67.3882 1.84188 -6.15987 xyz
    dof rx ry rz
  end
  begin
    id 19
    name RightForeArm
    direction -0.991508 0.0912848 0.0926241
    length 10.8312
    axis -22.1975 3.41087 -4.28711 xyz
    dof rx ry rz
  end
  begin
    id 20
    name RightHand
    direction -0.989262 0.0600788 0.133232
    length 6.57864
    axis -12.2911 2.17515 -4.39675 xyz
    dof rx ry rz
  end
  begin
    id 21
    name LeftUpLegDummy
    direction 0.718183 -0.695806 0.00816078
    length 4.904
    axis 0 0 0 xyz
  end
  begin
    id 22
    name LeftUpLeg
    direction 0.0831398 -0.99469 0.0606531
    length 17.4976
    axis -1.71016 2.29552 4.63832 xyz
    dof rx ry rz
  end
  begin
    id 23
    name LeftLeg
    direction 0.0498442 -0.991778 -0.117862
    length 16.5821
    axis 5.13757 15.5727 5.13348 xyz
    dof rx ry rz
  end
  begin
    id 24
    name LeftFoot
    direction 0.269026 -0.433896 0.85986
    length 3.77069
    axis -0.576502 15.6961 4.10267 xyz
    dof rx ry rz
  end
  begin
    id 25
    name LeftToes
    direction 0.277311 0.0251143 0.960452
    length 3.85048
    axis -0.576502 15.6961 4.10267 xyz
    dof rx ry rz
  end
:hierarchy
  begin
    root RightUpLegDummy SpineDummy LeftUpLegDummy
    RightUpLegDummy RightUpLeg
    RightUpLeg RightLeg
    RightLeg RightFoot
    RightFoot RightToes
    SpineDummy Spine
    Spine Spine1
    Spine1 HEadDummy LeftShoulder1Dummy RightShoulderDummy
    HEadDummy HEad
    LeftShoulder1Dummy LeftShoulder1
    LeftShoulder1 LeftArm
    LeftArm LeftForeArm
    LeftForeArm LeftHand
    RightShoulderDummy RightShoulder
    RightShoulder RightArm
    RightArm RightForeArm
    RightForeArm RightHand
    LeftUpLegDummy LeftUpLeg
    LeftUpLeg LeftLeg
    LeftLeg LeftFoot
    LeftFoot LeftToes
  end

:SAMPLES-PER-SECOND 30
:FULLY-SPECIFIED
:DEGREES
168
root  -3.63688 39.1843 -4.87047 -3.05001 -5.38482 -2.63808
RightUpLeg  -8.27754 -0.305521 6.29758
RightLeg  16.3794 -7.74117 -4.53831
RightFoot  -6.52154 0.0750085 -0.842891
RightToes  1.74624e-010 -3.18055e-015 -2.98177e-016
Spine  2.42124 -0.560381 5.01104
Spine1  9.98533 -0.743376 3.24763
HEad  -11.6122 5.54484 -1.50813
LeftShoulder1  -3.88251e-019 9.70628e-020 -3.87848e-018
LeftArm  -32.1648 60.4746 -73.1831
LeftForeArm  -5.57505 -15.9113 -1.02249
LeftHand  -0.723888 -3.33489 10.2681
RightShoulder  7.30324 10.2981 34.9037
RightArm  7.41911 -44.2807 15.1677
RightForeArm  15.4663 16.2512 -7.99081
RightHand  -0.981148 3.58014 -12.5837
LeftUpLeg  -6.00272 4.1751 1.12799
LeftLeg  22.4797 4.25006 9.08065
LeftFoot  -12.1869 -0.0145014 -2.41506
LeftToes  7.37594e-011 2.64622e-011 -6.25182e-011
169
root  -3.88755 38.7982 -4.82995 -3.45345 -4.42349 -4.03752
RightUpLeg  -9.30263 -0.51023 8.01262
RightLeg  20.0295 -8.19735 -6.06891
RightFoot  -8.62136 0.0476663 -0.567116
RightToes  1.74624e-010 -3.18055e-015 -2.98177e-016
Spine  3.52304 -1.07597 7.38907
Spine1  9.79163 -1.20722 4.34257
HEad  -11.8657 5.53429 -1.29465
LeftShoulder1  -3.88251e-019 9.70628e-020 -3.87848e-018
LeftArm  -32.2001 60.3146 -74.0142
LeftForeArm  -6.11782 -17.3556 -0.727385
LeftHand  -0.917797 -4.21693 11.7849
RightShoulder  7.21418 10.2525 34.5468
RightArm  9.46152 -44.4497 16.1336
RightForeArm  10.0773 18.2744 -9.14509
RightHand  -0.901803 2.94691 -12.4236
LeftUpLeg  -8.94025 6.00356 3.63148
LeftLeg  28.9964 0.376089 9.38358
LeftFoot  -13.9353 -0.0661718 -3.6405
LeftToes  7.37594e-011 2.64622e-011 -6.25182e-011
170
root  -4.11963 38.3933 -4.84313 -4.17793 -3.1008 -5.84994
RightUpLeg  -9.83771 -1.04116 9.83953
RightLeg  23.3524 -9.01353 -7.12622
RightFoot  -10.4353 0.0410859 -0.490907
RightToes  1.74624e-010 -3.18055e-015 -2.98177e-016
Spine  5.32125 -1.70601 10.1062
Spine1  9.30853 -1.73815 5.75013
HEad  -12.5269 5.07145 -1.2828
LeftShoulder1  -3.88251e-019 9.70628e-020 -3.87848e-018
LeftArm  -32.075 59.7078 -74.8787
LeftForeArm  -7.80219 -18.791 -0.256456
LeftHand  -0.964509 -4.34853 12.1885
RightShoulder  7.18408 10.2318 34.4371
RightArm  13.1056 -44.2249 16.5088
RightForeArm  4.49134 20.5847 -10.8052
RightHand  -0.883267 2.91126 -12.2277
LeftUpLeg  -13.0037 6.15022 6.72773
LeftLeg  37.6042 -3.82686 9.07673
LeftFoot  -13.2984 -0.038665 -6.62955
LeftToes  7.37594e-011 2.64622e-011 -6.25182e-011
171
root  -4.33333 38.0274 -4.87225 -5.13392 -2.29535 -7.49466
RightUpLeg  -9.91704 -1.62042 11.5272
RightLeg  25.9756 -9.43183 -7.8923
RightFoot  -11.9558 0.0401444 -0.470417
RightToes  1.74624e-010 -3.18055e-015 -2.98177e-016
Spine  7.16646 -2.05844 12.4992
Spine1  9.01533 -1.93746 7.15604
HEad  -13.6565 4.4951 -1.20225
LeftShoulder1  -3.88251e-019 9.70628e-020 -3.87848e-018
LeftArm  -31.7718 58.6918 -75.7036
LeftForeArm  -9.71352 -20.0478 0.2723
LeftHand  -0.921257 -4.0168 12.0693
RightShoulder  7.27049 10.2806 34.774
RightArm  16.4445 -42.9904 16.4582
RightForeArm  1.99368 22.2464 -12.0864
RightHand  -1.07103 3.99458 -13.111
LeftUpLeg  -17.2735 5.03406 9.96117
LeftLeg  46.6292 -7.7166 7.6493
LeftFoot  -10.3205 0.242038 -10.9094
LeftToes  7.37594e-011 2.64622e-011 -6.25182e-011
172
root  -4.51898 37.7835 -4.87187 -5.92288 -2.80197 -8.05817
RightUpLeg  -9.95377 -2.45302 12.477
RightLeg  27.8165 -8.17994 -8.44348
RightFoot  -13.2002 0.0393897 -0.618661
RightToes  1.74624e-010 -3.18055e-015 -2.98177e-016
Spine  8.2102 -1.88937 13.6786
Spine1  9.46863 -1.62354 8.12581
HEad  -14.8257 4.2478 -0.726818
LeftShoulder1  -3.88251e-019 9.70628e-020 -3.87848e-018
LeftArm  -31.2998 57.7525 -76.3278
LeftForeArm  -11.3514 -21.1126 0.75618
LeftHand  -0.940908 -3.91769 12.4477
RightShoulder  7.44439 10.3916 35.4169
RightArm  18.1587 -40.6442 16.9721
RightForeArm  3.32052 22.3669 -12.1795
RightHand  -1.39472 5.4537 -14.8212
LeftUpLeg  -20.4242 3.9627 12.2631
LeftLeg  53.9831 -9.91077 6.40276
LeftFoot  -7.72946 0.641235 -14.2147
LeftToes  7.37594e-011 2.64622e-011 -6.25182e-011
173
root  -4.66608 37.7231 -4.82918 -6.28427 -4.53673 -7.34989
RightUpLeg  -10.0492 -3.37509 12.4245
RightLeg  28.67 -5.57045 -8.5802
RightFoot  -13.8843 0.0361643 -1.0305
RightToes  1.74624e-010 -3.18055e-015 -2.98177e-016
Spine  8.29672 -1.40037 13.735
Spine1  10.5358 -0.926464 8.04415
HEad  -15.4011 4.46472 0.133895
LeftShoulder1  -3.88251e-019 9.70628e-020 -3.87848e-018
LeftArm  -30.4004 57.3746 -76.3656
LeftForeArm  -12.8088 -21.9773 1.11292
LeftHand  -1.03054 -4.16174 13.2552
RightShoulder  7.5697 10.4761 35.8639
RightArm  17.5262 -38.125 18.8727
RightForeArm  7.18977 21.0422 -11.1521
RightHand  -1.5855 6.24057 -15.7152
LeftUpLeg  -21.9033 3.33006 13.0491
LeftLeg  58.7689 -9.95731 7.48312
LeftFoot  -7.47678 0.701524 -14.6096
LeftToes  7.37594e-011 2.64622e-011 -6.25182e-011
174
root  -4.769 37.8117 -4.75095 -6.31021 -6.71547 -6.00062
RightUpLeg  -10.0219 -3.41603 11.6286
RightLeg  28.5748 -3.44541 -8.24583
RightFoot  -13.9364 0.0332479 -1.45538
RightToes  1.74624e-010 -3.18055e-015 -2.98177e-016
Spine  7.94853 -1.01003 13.6179
Spine1  11.3628 -0.108051 6.74438
HEad  -15.0027 4.99635 0.92765
LeftShoulder1  -3.88251e-019 9.70628e-020 -3.87848e-018
LeftArm  -28.908 57.6609 -75.5738
LeftForeArm  -13.888 -22.4524 1.21333
LeftHand  -1.10411 -4.42922 13.7903
RightShoulder  7.53426 10.4694 35.699
RightArm  14.0506 -36.7363 21.8754
RightForeArm  12.313 19.4726 -9.59193
RightHand  -1.53788 6.44375 -14.9885
LeftUpLeg  -22.2497 2.57568 12.6936
LeftLeg  61.336 -8.77362 10.7701
LeftFoot  -8.49594 0.486038 -12.6042
LeftToes  7.37594e-011 2.64622e-011 -6.25182e-011
